<?xml version="1.0" encoding="utf-8"?>
<!-- Generator: Adobe Illustrator 24.0.2, SVG Export Plug-In . SVG Version: 6.00 Build 0)  -->
<svg version="1.1" id="Capa_1" xmlns="http://www.w3.org/2000/svg" xmlns:xlink="http://www.w3.org/1999/xlink" x="0px" y="0px"
	 viewBox="0 0 504.81 283.46" style="enable-background:new 0 0 504.81 283.46;" xml:space="preserve">
<style type="text/css">
	.st0{fill:#CEC3BA;}
	.st1{fill:#E8E3DD;}
	.st2{fill:#3D393A;}
	.st3{fill:#FFFFFF;}
</style>
<g>
	<path class="st0" d="M266.43,130h10.83c5.57,0,8.91-2.5,11.21-8.97l-1.47,9.48h-25.5V85.28h25.88v5.13
		c-4.55-4.36-7.88-4.68-15.7-4.68h-5.25v10.38c0,8.78,4.49,10.57,13.26,10.57v5.06c-3.72-4.23-11.4-3.84-13.26-11.4V130z"/>
	<path class="st0" d="M323.52,91.11v6.73c-6.47-13.13-18.13-14.1-24.03-10c-5,3.27-4.48,10.32,11.15,17.62
		c6.98,3.01,13.65,6.66,13.65,14.22c0,3.46-1.41,6.15-3.72,8.01c-7.3,5.57-21.98,3.01-29.22-6.28v-8.91
		c6.28,15.89,20.63,21.46,28.7,14.67c4.23-3.52,3.08-10.12-11.85-16.98c-6.86-3.08-13.58-6.73-13.58-14.03
		C294.63,81.89,318.01,82.21,323.52,91.11z"/>
	<path class="st0" d="M336.4,101.24c-1.22-1.73-2.05-3.91-2.5-6.41v35.69h-5.13V85.28h11.34c9.42,0,17.24,2.88,17.24,10.25
		c0,7.11-6.54,10.38-13.13,10.38C341.14,105.91,338.45,104.18,336.4,101.24z M340.12,85.73h-6.21v4.23c0,4.42,0.96,8.27,2.88,10.96
		c1.86,2.88,4.42,4.49,7.43,4.49c4.29,0,8.01-2.88,8.01-9.87C352.22,88.23,346.14,85.73,340.12,85.73z"/>
	<path class="st0" d="M377.72,113.15c-10.89,1.03-13.39,7.62-15.44,12.3c-1.22,3.2-2.31,5.57-5.19,5.45
		c-0.38-0.06-0.58-0.06-1.02-0.45c-1.73-0.77-2.44-2.69-2.11-5.57c0.32-2.82,1.22-6.41,2.75-10.51c3.4-9.16,9.16-20.82,14.03-29.09
		h0.45l19.16,45.23h-5.38L377.72,113.15z M368.11,90.79c-3.91,7.56-8.26,16.27-10.96,23.71c-1.54,4.1-2.43,7.62-2.75,10.38
		c-0.13,2.63,0.32,4.61,1.86,5.13c0.38,0.13,0.58,0.13,0.9,0.32c2.56,0.19,3.59-2.05,4.61-5c2.11-4.81,4.68-11.53,15.76-12.62
		L368.11,90.79z"/>
	<path class="st0" d="M395.73,112.71c2.69,9.8,11.92,19.93,22.81,16.98c7.11-1.92,10.76-8.27,11.66-15.18v8.14
		c-2.82,3.52-6.92,6.15-11.53,7.37c-12.24,3.52-24.41-3.84-27.87-16.02c-3.14-12.17,3.97-24.73,16.08-27.94
		c14.29-3.91,20.95,5.25,20.95,5.25v6.66c0,0-6.86-15.38-20.82-11.47C396.05,89.51,393.29,102.97,395.73,112.71z"/>
	<path class="st0" d="M434.68,85.28h4.81v45.23h-4.81V85.28z"/>
	<path class="st0" d="M488.5,102.13c3.4,11.98-3.84,24.6-16.02,27.81c-12.04,3.4-24.41-3.84-27.74-16.15
		c-3.2-12.17,4.04-24.6,16.15-27.87C472.87,82.53,485.36,89.96,488.5,102.13z M449.93,112.45c2.56,9.67,11.6,19.93,22.42,17.04
		c10.96-2.82,13.71-16.34,11.21-26.08c-2.63-9.87-11.6-20.05-22.62-16.98C450.06,89.26,447.3,102.65,449.93,112.45z"/>
	<path class="st0" d="M261.5,183.91v-45.23h14.61c12.24,0,22.43,10.06,22.43,22.68c0,12.56-10.19,22.55-22.43,22.55H261.5z
		 M266.5,183.4h9.61c9.8,0,17.68-9.8,17.68-22.04c0-12.24-7.88-22.23-17.68-22.23h-9.61V183.4z"/>
	<path class="st0" d="M323.71,166.55c-10.89,1.03-13.39,7.62-15.44,12.3c-1.22,3.2-2.31,5.57-5.19,5.45
		c-0.38-0.06-0.58-0.06-1.02-0.45c-1.73-0.77-2.43-2.69-2.11-5.57c0.32-2.82,1.22-6.41,2.75-10.51c3.4-9.16,9.16-20.82,14.03-29.09
		h0.45l19.16,45.23h-5.38L323.71,166.55z M314.1,144.18c-3.91,7.56-8.26,16.27-10.96,23.71c-1.54,4.1-2.43,7.62-2.75,10.38
		c-0.13,2.63,0.32,4.61,1.86,5.13c0.38,0.13,0.58,0.13,0.9,0.32c2.56,0.19,3.59-2.05,4.61-5c2.11-4.81,4.68-11.53,15.76-12.62
		L314.1,144.18z"/>
	<path class="st0" d="M370.42,172.95c2.43,5.57,4.81,10.44,9.1,10.44v0.51c-23.32,0-8.84-24.73-23.32-24.73
		c-3.14,0-5.89-1.6-7.82-4.61c-1.15-1.86-1.92-3.91-2.5-6.6v35.94h-5.06v-45.3h11.28c9.42,0,17.17,2.82,17.17,10.12
		c0,6.28-4.74,9.48-10.32,10.19C365.62,160.46,367.86,166.93,370.42,172.95z M352.1,139.12h-6.22v3.97c0,4.68,1.15,8.33,2.95,11.15
		c1.79,2.63,4.42,4.49,7.37,4.49h0.45c4.1-0.26,7.56-3.27,7.56-10C364.21,141.43,358.31,139.12,352.1,139.12z"/>
	<path class="st0" d="M411.62,144.51v6.73c-6.47-13.13-18.13-14.1-24.03-10c-5,3.27-4.49,10.32,11.15,17.62
		c6.98,3.01,13.65,6.66,13.65,14.22c0,3.46-1.41,6.15-3.72,8.01c-7.3,5.57-21.98,3.01-29.22-6.28v-8.91
		c6.28,15.89,20.63,21.46,28.7,14.67c4.23-3.52,3.08-10.12-11.85-16.98c-6.86-3.08-13.58-6.73-13.58-14.03
		C382.72,135.28,406.11,135.6,411.62,144.51z"/>
	<path class="st0" d="M421.74,183.91h-4.87v-45.23h4.87v15.12c0,13.13,17.43,1.22,20.69,10.12v-25.24h5v45.23h-5v-16.53
		c0-12.94-17.3-1.22-20.69-10.06V183.91z"/>
	<path class="st0" d="M475.82,166.55c-10.89,1.03-13.39,7.62-15.44,12.3c-1.22,3.2-2.31,5.57-5.19,5.45
		c-0.38-0.06-0.58-0.06-1.02-0.45c-1.73-0.77-2.43-2.69-2.11-5.57c0.32-2.82,1.22-6.41,2.75-10.51c3.4-9.16,9.16-20.82,14.03-29.09
		h0.45l19.16,45.23h-5.38L475.82,166.55z M466.21,144.18c-3.91,7.56-8.26,16.27-10.96,23.71c-1.54,4.1-2.43,7.62-2.75,10.38
		c-0.13,2.63,0.32,4.61,1.86,5.13c0.38,0.13,0.58,0.13,0.9,0.32c2.56,0.19,3.59-2.05,4.61-5c2.11-4.81,4.68-11.53,15.76-12.62
		L466.21,144.18z"/>
</g>
<g>
	<g>
		<path class="st1" d="M127.61,135.26c0,0,10.83-13.56,18.11-23.01c0,0,16.99-35.38,62.52-24.48c0,0,47.45,17.92,30.2,60.84
			c0,0-12.52,39.51-54.81,37.82c0,0-34.33-1.26-51.19-41.2l-14.54-29.92c0,0,21.65,64.74,62.72,69.13c0,0,45.54,7.07,58.32-45.03
			c0,0,7.38-36.48-31.64-47.7c-2.38-0.69-4.99,0.12-6.51,2.07c-2.09,2.68-3.69,7.91-0.98,18c0.81,3.03,0.56,6.29-0.9,9.07
			c-1.69,3.21-5.13,6.26-12.14,5.6l-24.08-5.52c0,0-0.17-0.06-0.48-0.17c-9.02-3.13-19.03-0.83-25.84,5.86L127.61,135.26z"/>
	</g>
	<g>
		<path class="st1" d="M127.02,135.03c0,0-10.83,13.56-18.11,23.01c0,0-16.99,35.38-62.52,24.48c0,0-47.45-17.92-30.2-60.84
			c0,0,12.52-39.51,54.81-37.82c0,0,34.33,1.26,51.19,41.2l14.54,29.92c0,0-21.65-64.74-62.72-69.13c0,0-45.54-7.07-58.32,45.03
			c0,0-7.38,36.48,31.64,47.7c2.38,0.69,4.99-0.12,6.51-2.07c2.09-2.68,3.69-7.91,0.98-18c-0.81-3.03-0.56-6.29,0.9-9.07
			c1.69-3.21,5.13-6.26,12.14-5.6l24.08,5.52c0,0,0.17,0.06,0.48,0.17c9.02,3.13,19.03,0.83,25.84-5.86L127.02,135.03z"/>
	</g>
	<g>
		<circle class="st2" cx="188.78" cy="116.58" r="7.22"/>
	</g>
	<g>
		<circle class="st1" cx="188.78" cy="116.23" r="3.61"/>
	</g>
	<g>
		<circle class="st2" cx="64.75" cy="154.61" r="7.22"/>
	</g>
	<g>
		<circle class="st1" cx="64.51" cy="154.61" r="3.61"/>
	</g>
</g>
</svg>
