<?xml version="1.0" encoding="utf-8"?>
<!-- Generator: Adobe Illustrator 24.0.2, SVG Export Plug-In . SVG Version: 6.00 Build 0)  -->
<svg version="1.1" id="Capa_1" xmlns="http://www.w3.org/2000/svg" xmlns:xlink="http://www.w3.org/1999/xlink" x="0px" y="0px"
	 viewBox="0 0 283.46 283.46" style="enable-background:new 0 0 283.46 283.46;" xml:space="preserve">
<style type="text/css">
	.st0{fill:#CEC3BA;}
	.st1{fill:#E8E3DD;}
	.st2{fill:#3D393A;}
	.st3{fill:#FFFFFF;}
</style>
<g>
	<rect x="-6" y="-2.11" class="st2" width="290.57" height="290.57"/>
</g>
<g>
	<g>
		<g>
			<path class="st3" d="M143.4,147.71L143.4,147.71L143.4,147.71l-7.1-14.6c0,0,3.89,11.62,11.46,23.74
				c-0.28-0.6-0.55-1.22-0.82-1.85L143.4,147.71z"/>
		</g>
		<g>
			<g>
				<path class="st3" d="M202.42,112.95c-33.33-7.98-45.76,17.92-45.76,17.92c-5.33,6.92-13.26,16.84-13.26,16.84v0l6.42-6.32
					c4.98-4.9,12.31-6.58,18.91-4.29c0.23,0.08,0.35,0.13,0.35,0.13l17.62,4.04c5.13,0.48,7.65-1.75,8.89-4.1
					c1.07-2.03,1.25-4.42,0.66-6.64c-1.98-7.39-0.81-11.21,0.72-13.17c1.11-1.43,3.02-2.02,4.76-1.52
					c28.56,8.22,23.15,34.91,23.15,34.91c-9.35,38.13-42.68,32.95-42.68,32.95c-15.17-1.62-26.72-14.5-34.44-26.85
					c12.59,27.42,36.64,28.3,36.64,28.3c30.95,1.23,40.11-27.68,40.11-27.68C237.14,126.07,202.42,112.95,202.42,112.95z
					 M188.16,139.32c-2.92,0-5.28-2.37-5.28-5.28c0-2.92,2.37-5.28,5.28-5.28c2.92,0,5.28,2.37,5.28,5.28
					C193.44,136.95,191.08,139.32,188.16,139.32z"/>
			</g>
		</g>
	</g>
	<g>
		<circle class="st3" cx="188.16" cy="133.78" r="2.64"/>
	</g>
	<g>
		<g>
			<path class="st3" d="M142.97,147.54L142.97,147.54L142.97,147.54l7.1,14.6c0,0-3.89-11.62-11.46-23.74
				c0.28,0.6,0.55,1.22,0.82,1.85L142.97,147.54z"/>
		</g>
		<g>
			<g>
				<path class="st3" d="M142.97,147.54l-6.42,6.32c-4.98,4.9-12.31,6.58-18.91,4.29c-0.23-0.08-0.35-0.13-0.35-0.13l-17.62-4.04
					c-5.13-0.48-7.65,1.75-8.89,4.1c-1.07,2.03-1.25,4.42-0.66,6.64c1.98,7.39,0.81,11.21-0.72,13.17
					c-1.11,1.43-3.02,2.02-4.76,1.52c-28.56-8.22-23.15-34.91-23.15-34.91c9.35-38.13,42.68-32.95,42.68-32.95
					c15.17,1.62,26.72,14.5,34.44,26.85c-12.59-27.42-36.64-28.3-36.64-28.3c-30.95-1.23-40.11,27.68-40.11,27.68
					c-12.63,31.41,22.1,44.53,22.1,44.53c33.33,7.98,45.76-17.92,45.76-17.92C135.04,157.47,142.97,147.54,142.97,147.54
					L142.97,147.54z M97.39,167.15c-2.92,0-5.28-2.37-5.28-5.28c0-2.92,2.37-5.28,5.28-5.28c2.92,0,5.28,2.37,5.28,5.28
					C102.68,164.79,100.31,167.15,97.39,167.15z"/>
			</g>
		</g>
	</g>
	<g>
		<circle class="st3" cx="97.21" cy="161.87" r="2.64"/>
	</g>
</g>
</svg>
